HIERARCHY
ROOT Hips
{
 OFFSET 0.000000 0.000000 0.000000
 CHANNELS 6 Xposition Yposition Zposition Yrotation Xrotation Zrotation
 JOINT Chest
 {
  OFFSET 0.000000 9.585900 0.002600
  CHANNELS 3 Yrotation Xrotation Zrotation
  JOINT Chest2
  {
   OFFSET 0.000000 9.601200 -0.005300
   CHANNELS 3 Yrotation Xrotation Zrotation
   JOINT Chest3
   {
    OFFSET 0.000000 9.561800 0.000000
    CHANNELS 3 Yrotation Xrotation Zrotation
    JOINT Chest4
    {
     OFFSET 0.000000 9.552100 0.000000
     CHANNELS 3 Yrotation Xrotation Zrotation
     JOINT Neck
     {
      OFFSET 0.000000 14.453000 0.000000
      CHANNELS 3 Yrotation Xrotation Zrotation
      JOINT Head
      {
       OFFSET 0.000000 8.936500 -0.011300
       CHANNELS 3 Yrotation Xrotation Zrotation
       End Site
       {
        OFFSET 0.000000 17.073600 -0.006000
       }
      }
     }
     JOINT RightCollar
     {
      OFFSET -2.921100 9.558500 0.000000
      CHANNELS 3 Yrotation Xrotation Zrotation
      JOINT RightShoulder
      {
       OFFSET -13.519700 0.000000 0.000000
       CHANNELS 3 Yrotation Xrotation Zrotation
       JOINT RightElbow
       {
        OFFSET 0.000000 -29.696600 0.000000
        CHANNELS 3 Yrotation Xrotation Zrotation
        JOINT RightWrist
        {
         OFFSET 0.000000 -24.004700 0.000000
         CHANNELS 3 Yrotation Xrotation Zrotation
         End Site
         {
          OFFSET 0.000000 -17.728500 0.000000
         }
        }
       }
      }
     }
     JOINT LeftCollar
     {
      OFFSET 2.921100 9.558500 0.000000
      CHANNELS 3 Yrotation Xrotation Zrotation
      JOINT LeftShoulder
      {
       OFFSET 13.519700 0.000000 0.000000
       CHANNELS 3 Yrotation Xrotation Zrotation
       JOINT LeftElbow
       {
        OFFSET 0.000000 -29.696600 0.000000
        CHANNELS 3 Yrotation Xrotation Zrotation
        JOINT LeftWrist
        {
         OFFSET 0.000000 -24.004700 0.000000
         CHANNELS 3 Yrotation Xrotation Zrotation
         End Site
         {
          OFFSET 0.000000 -17.728500 0.000000
         }
        }
       }
      }
     }
    }
   }
  }
 }
 JOINT RightHip
 {
  OFFSET -7.771700 -0.012900 -0.001300
  CHANNELS 3 Yrotation Xrotation Zrotation
  JOINT RightKnee
  {
   OFFSET 0.000000 -40.869800 0.001200
   CHANNELS 3 Yrotation Xrotation Zrotation
   JOINT RightAnkle
   {
    OFFSET 0.000000 -39.717900 0.002100
    CHANNELS 3 Yrotation Xrotation Zrotation
    JOINT RightToe
    {
     OFFSET 0.000000 -4.965400 11.033500
     CHANNELS 3 Yrotation Xrotation Zrotation
     End Site
     {
      OFFSET 0.000000 -1.423100 5.872300
     }
    }
   }
  }
 }
 JOINT LeftHip
 {
  OFFSET 7.771700 -0.012900 -0.001300
  CHANNELS 3 Yrotation Xrotation Zrotation
  JOINT LeftKnee
  {
   OFFSET 0.000000 -40.869800 0.001200
   CHANNELS 3 Yrotation Xrotation Zrotation
   JOINT LeftAnkle
   {
    OFFSET 0.000000 -39.717900 0.002100
    CHANNELS 3 Yrotation Xrotation Zrotation
    JOINT LeftToe
    {
     OFFSET 0.000000 -4.965400 11.033500
     CHANNELS 3 Yrotation Xrotation Zrotation
     End Site
     {
      OFFSET 0.000000 -1.423100 5.872300
     }
    }
   }
  }
 }
}
MOTION
Frames: 16
Frame Time: 0.008333
-136.829959 51.573939 -58.995781 174.322200 -21.219221 1.731547 -1.123139 11.329852 0.749690 -0.051551 0.796876 0.075153 -0.134292 1.342766 0.167878 -0.945892 10.406106 1.229437 2.497769 18.515116 -3.657184 3.495318 -6.030711 -4.538663 1.998832 18.357379 11.642639 15.684188 -7.368682 -30.992034 132.671325 -44.164207 -177.462409 -0.267104 2.439926 -11.496056 0.520094 17.392509 -13.534984 -17.769770 -4.044780 30.209854 -123.535317 -49.637326 173.668306 14.904807 3.896188 12.808993 -8.670997 -61.706663 5.544872 -89.784765 84.402069 -98.200944 -5.085796 -10.107649 7.979129 0.311983 -0.684339 0.168455 11.896393 -58.968857 -9.106392 50.890460 85.128466 58.074690 -0.811895 -14.483566 -1.613019 0.178245 0.586026 0.096803
-136.835581 51.573928 -58.994013 174.347710 -21.213950 1.703020 -1.087071 11.351464 0.731565 -0.078955 0.783308 0.097763 -0.134657 1.344003 0.167124 -0.948855 10.410737 1.222602 2.468171 18.521637 -3.674981 3.484108 -6.057418 -4.498939 2.002207 18.344506 11.640210 15.680892 -7.381345 -30.971278 132.665819 -44.147386 -177.445411 -0.245547 2.439385 -11.642634 0.516242 17.381771 -13.513876 -17.768376 -4.043688 30.194307 -123.529248 -49.618851 173.656623 14.916442 3.902186 12.864383 -8.695450 -61.706364 5.569913 -89.721720 84.388018 -98.146521 -5.076297 -10.095499 8.000186 0.297755 -0.689950 0.161583 11.889812 -58.981320 -9.101740 50.822386 85.135476 58.018481 -0.830970 -14.478399 -1.605917 0.195932 0.586589 0.101504
-136.842673 51.574191 -58.992183 174.385526 -21.210664 1.677022 -1.106173 11.353890 0.733094 -0.066367 0.791083 0.083757 -0.141104 1.341281 0.173212 -0.946124 10.419929 1.210058 2.454854 18.509440 -3.657422 3.463273 -6.063749 -4.489526 2.007739 18.329123 11.641017 15.676889 -7.391990 -30.951906 132.658419 -44.138157 -177.434587 -0.231116 2.437844 -11.739954 0.513886 17.369021 -13.492402 -17.768230 -4.041140 30.187442 -123.562964 -49.656637 173.699873 14.913265 3.874264 12.941291 -8.741680 -61.705987 5.594110 -89.712035 84.385209 -98.151931 -5.072896 -10.087414 8.018573 0.285874 -0.696932 0.153432 11.919229 -58.993653 -9.124975 50.703759 85.151047 57.908740 -0.857278 -14.459466 -1.582819 0.203930 0.574746 0.112086
-136.854823 51.573999 -58.988472 174.420936 -21.194888 1.678589 -1.128240 11.343513 0.706940 -0.053079 0.799027 0.072141 -0.141178 1.342798 0.172727 -0.946333 10.425763 1.205678 2.444095 18.489346 -3.627862 3.452550 -6.064865 -4.488214 2.010159 18.319470 11.594118 15.669326 -7.412572 -30.907976 132.668830 -44.150544 -177.468156 -0.226344 2.437610 -11.770250 0.503705 17.364045 -13.496213 -17.771350 -4.043884 30.222480 -123.575490 -49.672554 173.716560 14.927684 3.878112 13.007010 -8.700808 -61.720299 5.546392 -89.647015 84.372467 -98.104796 -5.075226 -10.091164 8.055127 0.272707 -0.687533 0.150122 11.944477 -59.010334 -9.165806 50.658247 85.136669 57.833024 -0.864087 -14.437871 -1.545435 0.178937 0.569631 0.107081
-136.862303 51.574642 -58.986076 174.449933 -21.191741 1.652766 -1.125576 11.353889 0.702287 -0.051840 0.798523 0.074039 -0.134863 1.348555 0.165731 -0.949630 10.427972 1.209472 2.423337 18.481321 -3.621840 3.445846 -6.078700 -4.469595 2.006248 18.306425 11.586864 15.683487 -7.382315 -30.934266 132.668293 -44.152851 -177.516633 -0.201646 2.431960 -11.880500 0.486941 17.375300 -13.515875 -17.769560 -4.053472 30.248849 -123.573245 -49.647187 173.707501 14.934399 3.883858 13.036412 -8.710889 -61.716856 5.549753 -89.584175 84.365696 -98.033811 -5.091516 -10.092367 8.056401 0.282484 -0.681796 0.161809 11.903692 -59.019620 -9.140906 50.664355 85.125771 57.824000 -0.868414 -14.434800 -1.528606 0.170152 0.576580 0.102227
-136.868815 51.575086 -58.982507 174.485860 -21.182807 1.615202 -1.111730 11.362434 0.701624 -0.067151 0.793029 0.085661 -0.134883 1.350198 0.165469 -0.949532 10.434161 1.206381 2.399672 18.489512 -3.643375 3.427524 -6.104797 -4.435497 2.002065 18.297069 11.578238 15.686434 -7.380277 -30.929631 132.632150 -44.110631 -177.447500 -0.158777 2.445579 -12.061201 0.473433 17.366118 -13.500653 -17.761569 -4.048675 30.206165 -123.569116 -49.621015 173.704491 14.925740 3.872227 13.047096 -8.748142 -61.715571 5.574554 -89.489091 84.361597 -97.932002 -5.096360 -10.096855 8.057149 0.290972 -0.674195 0.166742 11.872340 -59.040116 -9.119889 50.637170 85.124968 57.792993 -0.876575 -14.423880 -1.509952 0.169848 0.576528 0.100367
-136.877743 51.575536 -58.978563 174.514163 -21.169937 1.591842 -1.121820 11.354395 0.706691 -0.056843 0.801135 0.074248 -0.140454 1.347877 0.171217 -0.954476 10.433356 1.210753 2.385888 18.493423 -3.654311 3.384169 -6.106571 -4.437122 2.000079 18.292791 11.573925 15.688417 -7.379521 -30.928675 132.616733 -44.098605 -177.424347 -0.134939 2.438979 -12.116372 0.467111 17.373709 -13.518479 -17.764144 -4.050635 30.223007 -123.588129 -49.672667 173.738012 14.915932 3.871539 13.120500 -8.751605 -61.719836 5.578938 -89.383907 84.371607 -97.840915 -5.102430 -10.093515 8.100155 0.267670 -0.673133 0.149229 11.891289 -59.062821 -9.140067 50.594614 85.129383 57.756945 -0.893609 -14.400399 -1.491909 0.177962 0.563386 0.103557
-136.885065 51.576620 -58.976052 174.546423 -21.166126 1.555871 -1.123510 11.363036 0.714202 -0.055601 0.802382 0.072839 -0.158175 1.337559 0.189270 -0.950842 10.440568 1.202712 2.374338 18.492469 -3.659166 3.364479 -6.109797 -4.432552 1.998752 18.297800 11.540045 15.688469 -7.396110 -30.902606 132.617413 -44.099249 -177.434159 -0.091118 2.414746 -12.142243 0.467512 17.385034 -13.533502 -17.770092 -4.049227 30.215898 -123.574592 -49.648303 173.725564 14.919774 3.899541 13.186822 -8.724719 -61.706359 5.563107 -89.222442 84.365430 -97.661418 -5.126251 -10.111737 8.122724 0.267342 -0.651411 0.149672 11.860825 -59.076646 -9.120824 50.576542 85.128734 57.738000 -0.898303 -14.391233 -1.473427 0.178020 0.562317 0.099404
-136.895138 51.577884 -58.974197 174.573476 -21.162799 1.536513 -1.123342 11.372516 0.705500 -0.051957 0.803597 0.071079 -0.162495 1.338067 0.189951 -0.954673 10.444374 1.196323 2.370351 18.475540 -3.630688 3.339712 -6.102320 -4.440472 1.999725 18.293955 11.524173 15.699025 -7.373116 -30.924093 132.612467 -44.101988 -177.473913 -0.100155 2.421563 -12.181281 0.480019 17.412308 -13.566800 -17.783064 -4.056077 30.259220 -123.575903 -49.626325 173.720722 14.924180 3.916413 13.234064 -8.744765 -61.703559 5.568382 -89.165860 84.368747 -97.614265 -5.115317 -10.113227 8.124183 0.267993 -0.655587 0.150548 11.831242 -59.084770 -9.108807 50.572262 85.121645 57.719131 -0.904471 -14.386130 -1.454305 0.181685 0.565759 0.090937
-136.904276 51.579092 -58.972586 174.606724 -21.158923 1.508076 -1.121963 11.381666 0.704091 -0.054277 0.805935 0.068079 -0.159690 1.337832 0.192324 -0.952049 10.449453 1.193078 2.349085 18.470526 -3.624731 3.316571 -6.108848 -4.431115 1.986972 18.278141 11.538302 15.703501 -7.364935 -30.930295 132.555593 -44.073346 -177.376276 -0.134933 2.443150 -12.270621 0.467698 17.403322 -13.548576 -17.769476 -4.051645 30.241055 -123.571402 -49.624834 173.716576 14.928791 3.916771 13.273304 -8.783315 -61.700625 5.588446 -89.120010 84.368683 -97.577608 -5.104722 -10.109962 8.134347 0.263538 -0.661584 0.149902 11.819830 -59.098462 -9.110415 50.591888 85.120869 57.738944 -0.908502 -14.369131 -1.445367 0.172032 0.555876 0.099076
-136.913167 51.580513 -58.972137 174.643346 -21.159616 1.476888 -1.100326 11.413912 0.677296 -0.079357 0.791252 0.095720 -0.158415 1.336632 0.192187 -0.950476 10.453898 1.191781 2.330449 18.465445 -3.618800 3.308338 -6.121881 -4.414154 1.979291 18.263918 11.554378 15.703236 -7.371548 -30.920823 132.543610 -44.065564 -177.355928 -0.103196 2.407944 -12.250808 0.465115 17.410559 -13.553358 -17.735832 -4.042824 30.218941 -123.587136 -49.622983 173.730652 14.928018 3.866247 13.257052 -8.810258 -61.690534 5.600327 -89.067180 84.361573 -97.527642 -5.107619 -10.112199 8.149939 0.259368 -0.661806 0.147862 11.804701 -59.106802 -9.109483 50.606804 85.120175 57.756728 -0.918867 -14.356053 -1.431333 0.168534 0.548683 0.102849
-136.920888 51.581909 -58.972323 174.673801 -21.161946 1.441355 -1.096209 11.433180 0.681268 -0.079415 0.792401 0.095606 -0.141751 1.354112 0.169490 -0.952298 10.464743 1.186313 2.308084 18.435900 -3.589070 3.303658 -6.137627 -4.395261 1.979377 18.244696 11.537886 15.705082 -7.393174 -30.886092 132.522988 -44.053485 -177.336011 -0.103420 2.396170 -12.263582 0.463292 17.390131 -13.527600 -17.721877 -4.041213 30.228841 -123.602170 -49.618625 173.739608 14.927925 3.879982 13.320518 -8.833589 -61.679521 5.615620 -89.030212 84.355846 -97.488741 -5.106685 -10.109290 8.171736 0.247424 -0.667087 0.140775 11.807220 -59.115611 -9.110976 50.593200 85.130394 57.762107 -0.943485 -14.340257 -1.421301 0.188579 0.536470 0.108993
-136.930624 51.583331 -58.973348 174.686886 -21.165736 1.425306 -1.079790 11.454036 0.673651 -0.079430 0.793352 0.095528 -0.141740 1.355671 0.169275 -0.946509 10.477918 1.176353 2.286899 18.423153 -3.579584 3.282680 -6.148775 -4.388520 1.970675 18.223174 11.547866 15.708995 -7.361754 -30.921913 132.532198 -44.049050 -177.364887 -0.118071 2.402266 -12.299680 0.456039 17.377151 -13.515522 -17.702569 -4.038410 30.225302 -123.612788 -49.611896 173.745276 14.926993 3.894686 13.387842 -8.819137 -61.667677 5.604392 -88.969072 84.351457 -97.427161 -5.112353 -10.115816 8.192883 0.243706 -0.659648 0.139234 11.797536 -59.115615 -9.103468 50.608767 85.130153 57.774958 -0.955517 -14.334534 -1.411466 0.197859 0.533456 0.109537
-136.938875 51.583276 -58.971272 174.725459 -21.149296 1.390815 -1.093202 11.449945 0.681376 -0.079438 0.793937 0.095443 -0.129123 1.367251 0.156606 -0.951663 10.478962 1.179766 2.266030 18.437820 -3.607890 3.268974 -6.179410 -4.353276 1.963858 18.200675 11.569357 15.711158 -7.325512 -30.956058 132.541907 -44.040956 -177.384418 -0.125515 2.400268 -12.326006 0.455161 17.370283 -13.510705 -17.688913 -4.035569 30.221521 -123.613946 -49.608386 173.748311 14.926601 3.900100 13.441383 -8.855371 -61.676751 5.624261 -88.919406 84.344231 -97.377426 -5.115840 -10.115026 8.210366 0.237737 -0.662161 0.134292 11.822511 -59.145307 -9.127774 50.547973 85.142657 57.731063 -0.979455 -14.307959 -1.392865 0.210343 0.517018 0.115319
-136.947510 51.582560 -58.968070 174.785073 -21.124548 1.352086 -1.138938 11.428479 0.695032 -0.079451 0.794132 0.095411 -0.122793 1.373307 0.150310 -0.942982 10.497578 1.162974 2.251788 18.430091 -3.607051 3.250363 -6.187138 -4.345414 1.965504 18.191120 11.564440 15.704546 -7.318870 -30.955680 132.546870 -44.029917 -177.390449 -0.102504 2.378722 -12.308206 0.459583 17.359873 -13.501063 -17.693378 -4.037709 30.235155 -123.612427 -49.608324 173.749459 14.924595 3.921774 13.511347 -8.910900 -61.695138 5.641364 -88.884731 84.336679 -97.337442 -5.126447 -10.112619 8.213565 0.254356 -0.667478 0.139565 11.792442 -59.183188 -9.126028 50.484277 85.144219 57.650643 -0.974519 -14.290521 -1.362177 0.188030 0.516284 0.111911
-136.957260 51.582236 -58.966507 174.821164 -21.107915 1.331120 -1.142554 11.429826 0.685186 -0.079834 0.795583 0.095142 -0.135963 1.364436 0.162439 -0.931714 10.516528 1.146418 2.237078 18.421264 -3.605948 3.233557 -6.196228 -4.341126 1.962947 18.181416 11.554525 15.700732 -7.311179 -30.950406 132.549192 -44.022365 -177.397318 -0.112352 2.382580 -12.346504 0.463606 17.347381 -13.489557 -17.681962 -4.030866 30.227281 -123.622662 -49.584098 173.752331 14.926120 3.937518 13.582878 -8.926667 -61.708202 5.635165 -88.848111 84.332947 -97.295584 -5.137262 -10.110710 8.215744 0.263481 -0.671381 0.144696 11.785245 -59.206402 -9.135664 50.430369 85.145182 57.586118 -0.978525 -14.278806 -1.337416 0.190042 0.519675 0.103219
